# xmcd CD database file
#
# Track frame offsets:
#	150
#	13521
#	28666
#	40810
#	53289
#	63239
#	74445
#	81100
#	94555
#	108077
#	120979
#	137372
#	150249
#	161567
#	174643
#	188747
#	202202
#	215718
#	227875
#	228796
#	244094
#	255035
#	271637
#	285062
#	285890
#	299340
#	299702
#	310670
#	324322
#
# Disc length: 4451 seconds
#
# Revision: 0
# Processed by: cddbd v1.5.1PL2 Copyright (c) Steve Scherf et al.
# Submitted via: CDex 1.60beta1-cs1
#
DISCID=7a11611d
DTITLE=Nenen and itamar - doze dupla
DYEAR=1980
DGENRE=Country
TTITLE0=marcas que ficaram
TTITLE1=que seja feita a sua vontade
TTITLE2=doutor em paixão
TTITLE3=bom dia trabalhador
TTITLE4=decizão
TTITLE5=amor de gato
TTITLE6=o seu amor
TTITLE7=navegante amigo
TTITLE8=coração vadio
TTITLE9=desespeiro de amor
TTITLE10=levante a cabeça amigo
TTITLE11=magoado coração
TTITLE12=ao sonhar que te perdi
TTITLE13=eterna vingança
TTITLE14=três amores
TTITLE15=férias na hilha
TTITLE16=alma cabocla
TTITLE17=casebre de palha
TTITLE18=amigo legal
TTITLE19=casa pobre
TTITLE20=o ano dois mil
TTITLE21=coração de pedra
TTITLE22=musica 23
TTITLE23=musica 24
TTITLE24=musica 24
TTITLE25=musica25
TTITLE26=musicas 26
TTITLE27=musica 27
TTITLE28=musica 29
EXTD=YEAR: 1980
EXTT0=
EXTT1=
EXTT2=
EXTT3=
EXTT4=
EXTT5=
EXTT6=
EXTT7=
EXTT8=
EXTT9=
EXTT10=
EXTT11=
EXTT12=
EXTT13=
EXTT14=
EXTT15=
EXTT16=
EXTT17=
EXTT18=
EXTT19=
EXTT20=
EXTT21=
EXTT22=
EXTT23=
EXTT24=
EXTT25=
EXTT26=
EXTT27=
EXTT28=
PLAYORDER=
